name analog
datacolumns 19
datarows 64
range 0.1405 0.17200000000000001
endheader
time	ground_force_vx	ground_force_vy	ground_force_vz	ground_force_px	ground_force_py	ground_force_pz	l_ground_force_vx	l_ground_force_vy	l_ground_force_vz	l_ground_force_px	l_ground_force_py	l_ground_force_pz	ground_torque_x	ground_torque_y	ground_torque_z	l_ground_torque_x	l_ground_torque_y	l_ground_torque_z
0.1405	-0.0	-0.0	-0.0	-5.969262599945068	-0.0859966352581977	-620.146728515625	-0.0	-0.0	-0.0	-0.0	-0.0	-0.0	-0.0	-0.0	-0.0	-0.0	-0.0	-0.0
0.14100000000000001	-0.0	-0.0	-0.0	-6.4156270027160645	-0.0120370723307132	-619.4776611328125	-0.0	-0.0	-0.0	-0.0	-0.0	-0.0	-0.0	-0.0	-0.0	-0.0	-0.0	-0.0
0.14150000000000001	-0.0	-0.0	-0.0	-6.159901142120361	-0.9746052026748656	-619.4603271484375	-0.0	-0.0	-0.0	-0.0	-0.0	-0.0	-0.0	-0.0	-0.0	-0.0	-0.0	-0.0
0.14200000000000002	-0.0	-0.0	-0.0	-6.063563346862793	-1.253323674201965	-617.0271606445312	-0.0	-0.0	-0.0	-0.0	-0.0	-0.0	-0.0	-0.0	-0.0	-0.0	-0.0	-0.0
0.14250000000000002	-0.0	-0.0	-0.0	-6.416513919830322	-1.515216827392578	-616.2989501953125	-0.0	-0.0	-0.0	-0.0	-0.0	-0.0	-0.0	-0.0	-0.0	-0.0	-0.0	-0.0
0.14300000000000002	-0.0	-0.0	-0.0	-5.710718154907227	-1.5164613723754885	-616.3038940429688	-0.0	-0.0	-0.0	-0.0	-0.0	-0.0	-0.0	-0.0	-0.0	-0.0	-0.0	-0.0
0.14350000000000002	-0.0	-0.0	-0.0	-5.1753926277160645	-1.0754754543304443	-614.5143432617188	-0.0	-0.0	-0.0	-0.0	-0.0	-0.0	-0.0	-0.0	-0.0	-0.0	-0.0	-0.0
0.14400000000000002	-0.0	-0.0	-0.0	-4.555413722991943	-0.8992459774017334	-613.7817993164062	-0.0	-0.0	-0.0	-0.0	-0.0	-0.0	-0.0	-0.0	-0.0	-0.0	-0.0	-0.0
0.1445	-0.0	-0.0	-0.0	-4.101578235626221	-0.7151467204093933	-609.2228393554688	-0.0	-0.0	-0.0	-0.0	-0.0	-0.0	-0.0	-0.0	-0.0	-0.0	-0.0	-0.0
0.145	-0.0	-0.0	-0.0	-2.588109970092773	-0.5337780117988586	-606.0527954101562	-0.0	-0.0	-0.0	-0.0	-0.0	-0.0	-0.0	-0.0	-0.0	-0.0	-0.0	-0.0
0.1455	-0.0	-0.0	-0.0	-1.3372145891189575	0.2673912048339844	-605.343017578125	-0.0	-0.0	-0.0	-0.0	-0.0	-0.0	-0.0	-0.0	-0.0	-0.0	-0.0	-0.0
0.146	-0.0	-0.0	-0.0	0.3585623502731323	0.5296261310577393	-602.5181884765625	-0.0	-0.0	-0.0	-0.0	-0.0	-0.0	-0.0	-0.0	-0.0	-0.0	-0.0	-0.0
0.1465	-0.0	-0.0	-0.0	1.0689008235931396	-0.0	-598.665771484375	-0.0	-0.0	-0.0	-0.0	-0.0	-0.0	-0.0	-0.0	-0.0	-0.0	-0.0	-0.0
0.147	-0.0	-0.0	-0.0	1.611627221107483	-0.3572506904602051	-600.0440673828125	-0.0	-0.0	-0.0	-0.0	-0.0	-0.0	-0.0	-0.0	-0.0	-0.0	-0.0	-0.0
0.1475	-0.0	-0.0	-0.0	2.854736328125	-1.5983434915542605	-598.9905395507812	-0.0	-0.0	-0.0	-0.0	-0.0	-0.0	-0.0	-0.0	-0.0	-0.0	-0.0	-0.0
0.148	-0.0	-0.0	-0.0	3.4785897731781006	-0.5360214710235596	-599.0103759765625	-0.0	-0.0	-0.0	-0.0	-0.0	-0.0	-0.0	-0.0	-0.0	-0.0	-0.0	-0.0
0.1485	-0.0	-0.0	-0.0	3.5694949626922607	-1.067954659461975	-600.4080200195312	-0.0	-0.0	-0.0	-0.0	-0.0	-0.0	-0.0	-0.0	-0.0	-0.0	-0.0	-0.0
0.149	-0.0	-0.0	-0.0	4.278778076171875	-0.3598451316356659	-602.8894653320312	-0.0	-0.0	-0.0	-0.0	-0.0	-0.0	-0.0	-0.0	-0.0	-0.0	-0.0	-0.0
0.1495	-0.0	-0.0	-0.0	3.74726939201355	-0.4486448764801025	-605.7103881835938	-0.0	-0.0	-0.0	-0.0	-0.0	-0.0	-0.0	-0.0	-0.0	-0.0	-0.0	-0.0
0.15	-0.0	-0.0	-0.0	2.85508131980896	-0.7133879661560059	-606.409912109375	-0.0	-0.0	-0.0	-0.0	-0.0	-0.0	-0.0	-0.0	-0.0	-0.0	-0.0	-0.0
0.1505	-0.0	-0.0	-0.0	2.586509704589844	-0.2679856717586517	-606.415771484375	-0.0	-0.0	-0.0	-0.0	-0.0	-0.0	-0.0	-0.0	-0.0	-0.0	-0.0	-0.0
0.151	-0.0	-0.0	-0.0	2.1408376693725586	0.0891304016113281	-605.701904296875	-0.0	-0.0	-0.0	-0.0	-0.0	-0.0	-0.0	-0.0	-0.0	-0.0	-0.0	-0.0
0.1515	-0.0	-0.0	-0.0	1.7854316234588623	0.5355450510978699	-606.761962890625	-0.0	-0.0	-0.0	-0.0	-0.0	-0.0	-0.0	-0.0	-0.0	-0.0	-0.0	-0.0
0.152	-0.0	-0.0	-0.0	1.695314884185791	0.8914089798927307	-607.1171875	-0.0	-0.0	-0.0	-0.0	-0.0	-0.0	-0.0	-0.0	-0.0	-0.0	-0.0	-0.0
0.1525	-0.0	-0.0	-0.0	2.4089279174804688	0.8021957874298096	-607.46923828125	-0.0	-0.0	-0.0	-0.0	-0.0	-0.0	-0.0	-0.0	-0.0	-0.0	-0.0	-0.0
0.153	-0.0	-0.0	-0.0	3.5682213306427	0.445731520652771	-606.0570678710938	-0.0	-0.0	-0.0	-0.0	-0.0	-0.0	-0.0	-0.0	-0.0	-0.0	-0.0	-0.0
0.1535	-0.0	-0.0	-0.0	3.7468414306640634	0.3572184443473816	-607.1156616210938	-0.0	-0.0	-0.0	-0.0	-0.0	-0.0	-0.0	-0.0	-0.0	-0.0	-0.0	-0.0
0.154	-0.0	-0.0	-0.0	4.727817058563232	0.0013589859008789	-605.7049560546875	-0.0	-0.0	-0.0	-0.0	-0.0	-0.0	-0.0	-0.0	-0.0	-0.0	-0.0	-0.0
0.1545	-0.0	-0.0	-0.0	4.907449722290039	-0.0900014638900756	-603.5853271484375	-0.0	-0.0	-0.0	-0.0	-0.0	-0.0	-0.0	-0.0	-0.0	-0.0	-0.0	-0.0
0.155	-0.0	-0.0	-0.0	6.064810752868652	-0.801271915435791	-601.828125	-0.0	-0.0	-0.0	-0.0	-0.0	-0.0	-0.0	-0.0	-0.0	-0.0	-0.0	-0.0
0.1555	-0.0	-0.0	-0.0	7.0458149909973145	-0.4460147023200989	-601.4611206054688	-0.0	-0.0	-0.0	-0.0	-0.0	-0.0	-0.0	-0.0	-0.0	-0.0	-0.0	-0.0
0.156	-0.0	-0.0	-0.0	7.047630310058594	-0.8013530373573303	-597.9303588867188	-0.0	-0.0	-0.0	-0.0	-0.0	-0.0	-0.0	-0.0	-0.0	-0.0	-0.0	-0.0
0.1565	-0.0	-0.0	-0.0	6.248190402984619	-1.0700578689575195	-598.6204833984375	-0.0	-0.0	-0.0	-0.0	-0.0	-0.0	-0.0	-0.0	-0.0	-0.0	-0.0	-0.0
0.157	-0.0	-0.0	-0.0	6.603244781494141	-1.1609162092208862	-596.5252685546875	-0.0	-0.0	-0.0	-0.0	-0.0	-0.0	-0.0	-0.0	-0.0	-0.0	-0.0	-0.0
0.1575	-0.0	-0.0	-0.0	7.047630310058594	-1.8723413944244385	-595.1177368164062	-0.0	-0.0	-0.0	-0.0	-0.0	-0.0	-0.0	-0.0	-0.0	-0.0	-0.0	-0.0
0.158	-0.0	-0.0	-0.0	7.226737499237059	-2.224832057952881	-594.0487060546875	-0.0	-0.0	-0.0	-0.0	-0.0	-0.0	-0.0	-0.0	-0.0	-0.0	-0.0	-0.0
0.1585	-0.0	-0.0	-0.0	7.226051330566406	-2.757909774780273	-593.70703125	-0.0	-0.0	-0.0	-0.0	-0.0	-0.0	-0.0	-0.0	-0.0	-0.0	-0.0	-0.0
0.159	-0.0	-0.0	-0.0	7.758863925933838	-2.944567441940308	-595.4646606445312	-0.0	-0.0	-0.0	-0.0	-0.0	-0.0	-0.0	-0.0	-0.0	-0.0	-0.0	-0.0
0.1595	-0.0	-0.0	-0.0	8.030704498291016	-3.2943115234375	-594.0452270507812	-0.0	-0.0	-0.0	-0.0	-0.0	-0.0	-0.0	-0.0	-0.0	-0.0	-0.0	-0.0
0.16	-0.0	-0.0	-0.0	8.739850044250488	-3.5615124702453613	-594.7659912109375	-0.0	-0.0	-0.0	-0.0	-0.0	-0.0	-0.0	-0.0	-0.0	-0.0	-0.0	-0.0
0.1605	-0.0	-0.0	-0.0	8.74061107635498	-2.769094467163086	-592.2987060546875	-0.0	-0.0	-0.0	-0.0	-0.0	-0.0	-0.0	-0.0	-0.0	-0.0	-0.0	-0.0
0.161	-0.0	-0.0	-0.0	8.567423820495605	-2.2400364875793457	-591.5594482421875	-0.0	-0.0	-0.0	-0.0	-0.0	-0.0	-0.0	-0.0	-0.0	-0.0	-0.0	-0.0
0.1615	-0.0	-0.0	-0.0	8.386907577514648	-2.5825448036193848	-591.2099609375	-0.0	-0.0	-0.0	-0.0	-0.0	-0.0	-0.0	-0.0	-0.0	-0.0	-0.0	-0.0
0.162	-0.0	-0.0	-0.0	8.47019100189209	-0.8913040161132812	-589.4620361328125	-0.0	-0.0	-0.0	-0.0	-0.0	-0.0	-0.0	-0.0	-0.0	-0.0	-0.0	-0.0
0.1625	-0.0	-0.0	-0.0	7.408219814300537	0.1745169162750244	-587.6864624023438	-0.0	-0.0	-0.0	-0.0	-0.0	-0.0	-0.0	-0.0	-0.0	-0.0	-0.0	-0.0
0.163	-0.0	-0.0	-0.0	7.313930034637451	0.6185897588729858	-585.5881958007812	-0.0	-0.0	-0.0	-0.0	-0.0	-0.0	-0.0	-0.0	-0.0	-0.0	-0.0	-0.0
0.1635	-0.0	-0.0	-0.0	7.141022682189941	1.072350263595581	-582.0460205078125	-0.0	-0.0	-0.0	-0.0	-0.0	-0.0	-0.0	-0.0	-0.0	-0.0	-0.0	-0.0
0.164	-0.0	-0.0	-0.0	7.310937404632568	1.5094560384750366	-579.2036743164062	-0.0	-0.0	-0.0	-0.0	-0.0	-0.0	-0.0	-0.0	-0.0	-0.0	-0.0	-0.0
0.1645	-0.0	-0.0	-0.0	7.501304626464844	1.8671693801879885	-574.6539306640625	-0.0	-0.0	-0.0	-0.0	-0.0	-0.0	-0.0	-0.0	-0.0	-0.0	-0.0	-0.0
0.165	-0.0	-0.0	-0.0	8.014798164367676	1.6997597217559814	-573.21728515625	-0.0	-0.0	-0.0	-0.0	-0.0	-0.0	-0.0	-0.0	-0.0	-0.0	-0.0	-0.0
0.1655	-0.0	-0.0	-0.0	7.842352867126465	1.170125961303711	-568.626220703125	-0.0	-0.0	-0.0	-0.0	-0.0	-0.0	-0.0	-0.0	-0.0	-0.0	-0.0	-0.0
0.166	-0.0	-0.0	-0.0	7.404472351074219	1.422655701637268	-565.4478149414062	-0.0	-0.0	-0.0	-0.0	-0.0	-0.0	-0.0	-0.0	-0.0	-0.0	-0.0	-0.0
0.1665	-0.0	-0.0	-0.0	7.042337894439697	0.8039361238479614	-563.68212890625	-0.0	-0.0	-0.0	-0.0	-0.0	-0.0	-0.0	-0.0	-0.0	-0.0	-0.0	-0.0
0.167	-0.0	-0.0	-0.0	6.607118606567383	-0.09097570925951	-560.1873168945312	-0.0	-0.0	-0.0	-0.0	-0.0	-0.0	-0.0	-0.0	-0.0	-0.0	-0.0	-0.0
0.1675	-0.0	-0.0	-0.0	6.42315673828125	-0.5347824096679688	-559.8128662109375	-0.0	-0.0	-0.0	-0.0	-0.0	-0.0	-0.0	-0.0	-0.0	-0.0	-0.0	-0.0
0.168	-0.0	-0.0	-0.0	5.971232891082764	-0.8893486261367798	-560.865234375	-0.0	-0.0	-0.0	-0.0	-0.0	-0.0	-0.0	-0.0	-0.0	-0.0	-0.0	-0.0
0.1685	-0.0	-0.0	-0.0	4.651186466217041	-0.4538047313690185	-561.548095703125	-0.0	-0.0	-0.0	-0.0	-0.0	-0.0	-0.0	-0.0	-0.0	-0.0	-0.0	-0.0
0.169	-0.0	-0.0	-0.0	3.143388032913208	-0.0042002499103546	-561.2195434570312	-0.0	-0.0	-0.0	-0.0	-0.0	-0.0	-0.0	-0.0	-0.0	-0.0	-0.0	-0.0
0.1695	-0.0	-0.0	-0.0	2.0625922679901123	0.0085926949977874	-562.590087890625	-0.0	-0.0	-0.0	-0.0	-0.0	-0.0	-0.0	-0.0	-0.0	-0.0	-0.0	-0.0
0.17	-0.0	-0.0	-0.0	1.1820578575134275	0.4523423314094543	-561.927001953125	-0.0	-0.0	-0.0	-0.0	-0.0	-0.0	-0.0	-0.0	-0.0	-0.0	-0.0	-0.0
0.1705	-0.0	-0.0	-0.0	0.9171794652938844	0.6284676790237427	-561.9453735351562	-0.0	-0.0	-0.0	-0.0	-0.0	-0.0	-0.0	-0.0	-0.0	-0.0	-0.0	-0.0
0.171	-0.0	-0.0	-0.0	0.9789532423019408	0.5371426343917847	-564.0376586914062	-0.0	-0.0	-0.0	-0.0	-0.0	-0.0	-0.0	-0.0	-0.0	-0.0	-0.0	-0.0
0.1715	-0.0	-0.0	-0.0	0.1808456480503082	0.6287577152252197	-565.7847290039062	-0.0	-0.0	-0.0	-0.0	-0.0	-0.0	-0.0	-0.0	-0.0	-0.0	-0.0	-0.0
0.17200000000000001	-0.0	-0.0	-0.0	0.5402073860168457	0.5347824096679688	-566.1670532226562	-0.0	-0.0	-0.0	-0.0	-0.0	-0.0	-0.0	-0.0	-0.0	-0.0	-0.0	-0.0
